<svg id="visual" viewBox="0 0 675 900" width="675" height="900" xmlns="http://www.w3.org/2000/svg" xmlns:xlink="http://www.w3.org/1999/xlink" version="1.1"><rect x="0" y="0" width="675" height="900" fill="#E9E9E9"></rect><path d="M0 340L16 326.3C32 312.7 64 285.3 96.2 283.2C128.3 281 160.7 304 192.8 319.8C225 335.7 257 344.3 289.2 330.7C321.3 317 353.7 281 385.8 273.5C418 266 450 287 482.2 294.2C514.3 301.3 546.7 294.7 578.8 285.7C611 276.7 643 265.3 659 259.7L675 254L675 0L659 0C643 0 611 0 578.8 0C546.7 0 514.3 0 482.2 0C450 0 418 0 385.8 0C353.7 0 321.3 0 289.2 0C257 0 225 0 192.8 0C160.7 0 128.3 0 96.2 0C64 0 32 0 16 0L0 0Z" fill="#827397"></path><path d="M0 302L16 293.7C32 285.3 64 268.7 96.2 262.5C128.3 256.3 160.7 260.7 192.8 262C225 263.3 257 261.7 289.2 264.3C321.3 267 353.7 274 385.8 265.8C418 257.7 450 234.3 482.2 230.5C514.3 226.7 546.7 242.3 578.8 246.5C611 250.7 643 243.3 659 239.7L675 236L675 0L659 0C643 0 611 0 578.8 0C546.7 0 514.3 0 482.2 0C450 0 418 0 385.8 0C353.7 0 321.3 0 289.2 0C257 0 225 0 192.8 0C160.7 0 128.3 0 96.2 0C64 0 32 0 16 0L0 0Z" fill="#766990"></path><path d="M0 230L16 229.8C32 229.7 64 229.3 96.2 215.8C128.3 202.3 160.7 175.7 192.8 177.7C225 179.7 257 210.3 289.2 210C321.3 209.7 353.7 178.3 385.8 165C418 151.7 450 156.3 482.2 167.7C514.3 179 546.7 197 578.8 203C611 209 643 203 659 200L675 197L675 0L659 0C643 0 611 0 578.8 0C546.7 0 514.3 0 482.2 0C450 0 418 0 385.8 0C353.7 0 321.3 0 289.2 0C257 0 225 0 192.8 0C160.7 0 128.3 0 96.2 0C64 0 32 0 16 0L0 0Z" fill="#695f8a"></path><path d="M0 119L16 116.5C32 114 64 109 96.2 104C128.3 99 160.7 94 192.8 92.7C225 91.3 257 93.7 289.2 95.5C321.3 97.3 353.7 98.7 385.8 102.3C418 106 450 112 482.2 123C514.3 134 546.7 150 578.8 158.8C611 167.7 643 169.3 659 170.2L675 171L675 0L659 0C643 0 611 0 578.8 0C546.7 0 514.3 0 482.2 0C450 0 418 0 385.8 0C353.7 0 321.3 0 289.2 0C257 0 225 0 192.8 0C160.7 0 128.3 0 96.2 0C64 0 32 0 16 0L0 0Z" fill="#5b5583"></path><path d="M0 65L16 63.2C32 61.3 64 57.7 96.2 53.7C128.3 49.7 160.7 45.3 192.8 46.3C225 47.3 257 53.7 289.2 53C321.3 52.3 353.7 44.7 385.8 44.5C418 44.3 450 51.7 482.2 59.8C514.3 68 546.7 77 578.8 81C611 85 643 84 659 83.5L675 83L675 0L659 0C643 0 611 0 578.8 0C546.7 0 514.3 0 482.2 0C450 0 418 0 385.8 0C353.7 0 321.3 0 289.2 0C257 0 225 0 192.8 0C160.7 0 128.3 0 96.2 0C64 0 32 0 16 0L0 0Z" fill="#4d4c7d"></path></svg>